{"accessors" : [{"bufferView" : 0, "byteOffset" : 0, "componentType" : 5123, "count" : 29160, "type" : "SCALAR", "max" : [23037], "min" : [0]}, {"bufferView" : 1, "byteOffset" : 0, "componentType" : 5126, "count" : 23038, "type" : "VEC3", "max" : [98.2170639038086, -67.7774658203125, 98.22821044921875], "min" : [-98.27890014648438, -113.22144317626953, -98.2530288696289], "name" : "POSITION"}, {"bufferView" : 1, "byteOffset" : 12, "componentType" : 5126, "count" : 23038, "type" : "VEC3", "max" : [0.9999576210975647, 0.9999328851699829, 0.9999564290046692], "min" : [-0.9999576210975647, -0.9999328851699829, -0.9999564290046692], "name" : "NORMAL"}, {"bufferView" : 1, "byteOffset" : 24, "componentType" : 5126, "count" : 23038, "type" : "VEC2", "max" : [0.99444580078125, -0.23301208019256592], "min" : [0.00244140625, -0.99755859375], "name" : "TEXCOORD_0"}, {"bufferView" : 0, "byteOffset" : 58320, "componentType" : 5123, "count" : 480, "type" : "SCALAR", "max" : [398], "min" : [0]}, {"bufferView" : 2, "byteOffset" : 0, "componentType" : 5126, "count" : 399, "type" : "VEC3", "max" : [48.45558547973633, 37.25223159790039, 50.8049430847168], "min" : [-48.455589294433594, -37.25223159790039, -50.8049430847168], "name" : "POSITION"}, {"bufferView" : 2, "byteOffset" : 12, "componentType" : 5126, "count" : 399, "type" : "VEC3", "max" : [0.8659577965736389, 0.7865698933601379, 0.9294230937957764], "min" : [-0.8659577965736389, -0.7865700125694275, -0.9294231534004211], "name" : "NORMAL"}, {"bufferView" : 2, "byteOffset" : 24, "componentType" : 5126, "count" : 399, "type" : "VEC2", "max" : [0.9617823362350464, -0.07818150520324707], "min" : [0.289374977350235, -0.9764361381530762], "name" : "TEXCOORD_0"}, {"bufferView" : 0, "byteOffset" : 59280, "componentType" : 5123, "count" : 960, "type" : "SCALAR", "max" : [798], "min" : [0]}, {"bufferView" : 3, "byteOffset" : 0, "componentType" : 5126, "count" : 799, "type" : "VEC3", "max" : [62.041053771972656, 57.82569885253906, 38.115989685058594], "min" : [-62.04104995727539, -57.82569885253906, -38.115989685058594], "name" : "POSITION"}, {"bufferView" : 3, "byteOffset" : 12, "componentType" : 5126, "count" : 799, "type" : "VEC3", "max" : [1.0000042915344238, 0.8660297393798828, 0.8660296201705933], "min" : [-1.0000042915344238, -0.8660296201705933, -0.8660293817520142], "name" : "NORMAL"}, {"bufferView" : 3, "byteOffset" : 24, "componentType" : 5126, "count" : 799, "type" : "VEC2", "max" : [0.99755859375, -0.04835540056228638], "min" : [0.0263525377959013, -0.8816426992416382], "name" : "TEXCOORD_0"}, {"bufferView" : 0, "byteOffset" : 61200, "componentType" : 5123, "count" : 960, "type" : "SCALAR", "max" : [798], "min" : [0]}, {"bufferView" : 4, "byteOffset" : 0, "componentType" : 5126, "count" : 799, "type" : "VEC3", "max" : [82.73246002197266, 66.22628784179688, 66.22628784179688], "min" : [-82.73246765136719, -66.22628021240234, -66.22628021240234], "name" : "POSITION"}, {"bufferView" : 4, "byteOffset" : 12, "componentType" : 5126, "count" : 799, "type" : "VEC3", "max" : [1.0000042915344238, 0.7071101665496826, 0.7071103453636169], "min" : [-1.0000042915344238, -0.7071102261543274, -0.7071107029914856], "name" : "NORMAL"}, {"bufferView" : 4, "byteOffset" : 24, "componentType" : 5126, "count" : 799, "type" : "VEC2", "max" : [0.8310298919677734, -0.15104800462722778], "min" : [0.00244140625, -0.99755859375], "name" : "TEXCOORD_0"}, {"bufferView" : 0, "byteOffset" : 63120, "componentType" : 5123, "count" : 480, "type" : "SCALAR", "max" : [398], "min" : [0]}, {"bufferView" : 5, "byteOffset" : 0, "componentType" : 5126, "count" : 399, "type" : "VEC3", "max" : [66.9235610961914, 57.49372100830078, 66.92354583740234], "min" : [-66.92355346679688, -57.49372482299805, -66.92354583740234], "name" : "POSITION"}, {"bufferView" : 5, "byteOffset" : 12, "componentType" : 5126, "count" : 399, "type" : "VEC3", "max" : [0.8659577965736389, 0.7071101069450378, 0.8659579157829285], "min" : [-0.8659577965736389, -0.7071105241775513, -0.8659579157829285], "name" : "NORMAL"}, {"bufferView" : 5, "byteOffset" : 24, "componentType" : 5126, "count" : 399, "type" : "VEC2", "max" : [0.8866347074508667, -0.03411632776260376], "min" : [0.00244140625, -0.99755859375], "name" : "TEXCOORD_0"}, {"bufferView" : 0, "byteOffset" : 64080, "componentType" : 5123, "count" : 2280, "type" : "SCALAR", "max" : [1897], "min" : [0]}, {"bufferView" : 6, "byteOffset" : 0, "componentType" : 5126, "count" : 1898, "type" : "VEC3", "max" : [43.42138671875, 43.421382904052734, 43.4213981628418], "min" : [-43.42138671875, -43.421382904052734, -43.4213981628418], "name" : "POSITION"}, {"bufferView" : 6, "byteOffset" : 12, "componentType" : 5126, "count" : 1898, "type" : "VEC3", "max" : [1.0000042915344238, 0.9968448877334595, 1.0000042915344238], "min" : [-1.0000042915344238, -0.9968448877334595, -1.0000042915344238], "name" : "NORMAL"}, {"bufferView" : 6, "byteOffset" : 24, "componentType" : 5126, "count" : 1898, "type" : "VEC2", "max" : [0.9102097749710083, -0.495714008808136], "min" : [0.6910820007324219, -0.7148416638374329], "name" : "TEXCOORD_0"}, {"bufferView" : 0, "byteOffset" : 68640, "componentType" : 5123, "count" : 288, "type" : "SCALAR", "max" : [219], "min" : [0]}, {"bufferView" : 7, "byteOffset" : 0, "componentType" : 5126, "count" : 220, "type" : "VEC3", "max" : [1, 0, 1], "min" : [-1, -0.24376262724399567, -1], "name" : "POSITION"}, {"bufferView" : 7, "byteOffset" : 12, "componentType" : 5126, "count" : 220, "type" : "VEC3", "max" : [0.3779955506324768, 1.0000042915344238, 0.38278451561927795], "min" : [-0.3779956102371216, 0.9224643707275391, -0.3860933482646942], "name" : "NORMAL"}, {"bufferView" : 7, "byteOffset" : 24, "componentType" : 5126, "count" : 220, "type" : "VEC2", "max" : [0.4261307716369629, -0.9947052001953125], "min" : [0.4232773184776306, -0.99755859375], "name" : "TEXCOORD_0"}], "asset" : {"generator" : "Aspose.3D 21.11", "version" : "2.0"}, "buffers" : [{"uri" : "data:application/octet-stream;base64,", "byteLength" : 1176704}], "bufferViews" : [{"buffer" : 0, "byteOffset" : 0, "byteLength" : 69216, "target" : 34963}, {"buffer" : 0, "byteOffset" : 69220, "byteLength" : 933120, "byteStride" : 32, "target" : 34962}, {"buffer" : 0, "byteOffset" : 1002344, "byteLength" : 15360, "byteStride" : 32, "target" : 34962}, {"buffer" : 0, "byteOffset" : 1017708, "byteLength" : 30720, "byteStride" : 32, "target" : 34962}, {"buffer" : 0, "byteOffset" : 1048432, "byteLength" : 30720, "byteStride" : 32, "target" : 34962}, {"buffer" : 0, "byteOffset" : 1079156, "byteLength" : 15360, "byteStride" : 32, "target" : 34962}, {"buffer" : 0, "byteOffset" : 1094520, "byteLength" : 72960, "byteStride" : 32, "target" : 34962}, {"buffer" : 0, "byteOffset" : 1167484, "byteLength" : 9216, "byteStride" : 32, "target" : 34962}], "images" : [{"uri" : "data:image/jpeg;base64,"}, {"uri" : "data:image/jpeg;base64,"}, {"uri" : "data:image/jpeg;base64,"}, {"uri" : "data:image/jpeg;base64,"}], "materials" : [{"name" : "StingrayPBS3", "pbrMetallicRoughness" : {"baseColorFactor" : [1, 1, 1, 1], "baseColorTexture" : {"index" : 2, "texCoord" : 0}, "metallicFactor" : 0, "roughnessFactor" : 0, "metallicRoughnessTexture" : {"index" : 3, "texCoord" : 0}}, "normalTexture" : {"index" : 0, "texCoord" : 0, "scale" : 1}, "occlusionTexture" : {"index" : 1, "texCoord" : 0, "strength" : 0}, "emissiveFactor" : [0, 0, 0], "alphaMode" : "OPAQUE", "doubleSided" : false}, {"name" : "StingrayPBS3", "pbrMetallicRoughness" : {"baseColorFactor" : [1, 1, 1, 1], "baseColorTexture" : {"index" : 2, "texCoord" : 0}, "metallicFactor" : 0, "roughnessFactor" : 0, "metallicRoughnessTexture" : {"index" : 3, "texCoord" : 0}}, "normalTexture" : {"index" : 0, "texCoord" : 0, "scale" : 1}, "occlusionTexture" : {"index" : 1, "texCoord" : 0, "strength" : 0}, "emissiveFactor" : [0, 0, 0], "alphaMode" : "OPAQUE", "doubleSided" : false}, {"name" : "StingrayPBS3", "pbrMetallicRoughness" : {"baseColorFactor" : [1, 1, 1, 1], "baseColorTexture" : {"index" : 2, "texCoord" : 0}, "metallicFactor" : 0, "roughnessFactor" : 0, "metallicRoughnessTexture" : {"index" : 3, "texCoord" : 0}}, "normalTexture" : {"index" : 0, "texCoord" : 0, "scale" : 1}, "occlusionTexture" : {"index" : 1, "texCoord" : 0, "strength" : 0}, "emissiveFactor" : [0, 0, 0], "alphaMode" : "OPAQUE", "doubleSided" : false}, {"name" : "StingrayPBS3", "pbrMetallicRoughness" : {"baseColorFactor" : [1, 1, 1, 1], "baseColorTexture" : {"index" : 2, "texCoord" : 0}, "metallicFactor" : 0, "roughnessFactor" : 0, "metallicRoughnessTexture" : {"index" : 3, "texCoord" : 0}}, "normalTexture" : {"index" : 0, "texCoord" : 0, "scale" : 1}, "occlusionTexture" : {"index" : 1, "texCoord" : 0, "strength" : 0}, "emissiveFactor" : [0, 0, 0], "alphaMode" : "OPAQUE", "doubleSided" : false}, {"name" : "StingrayPBS3", "pbrMetallicRoughness" : {"baseColorFactor" : [1, 1, 1, 1], "baseColorTexture" : {"index" : 2, "texCoord" : 0}, "metallicFactor" : 0, "roughnessFactor" : 0, "metallicRoughnessTexture" : {"index" : 3, "texCoord" : 0}}, "normalTexture" : {"index" : 0, "texCoord" : 0, "scale" : 1}, "occlusionTexture" : {"index" : 1, "texCoord" : 0, "strength" : 0}, "emissiveFactor" : [0, 0, 0], "alphaMode" : "OPAQUE", "doubleSided" : false}, {"name" : "StingrayPBS3", "pbrMetallicRoughness" : {"baseColorFactor" : [1, 1, 1, 1], "baseColorTexture" : {"index" : 2, "texCoord" : 0}, "metallicFactor" : 0, "roughnessFactor" : 0, "metallicRoughnessTexture" : {"index" : 3, "texCoord" : 0}}, "normalTexture" : {"index" : 0, "texCoord" : 0, "scale" : 1}, "occlusionTexture" : {"index" : 1, "texCoord" : 0, "strength" : 0}, "emissiveFactor" : [0, 0, 0], "alphaMode" : "OPAQUE", "doubleSided" : false}, {"name" : "StingrayPBS3", "pbrMetallicRoughness" : {"baseColorFactor" : [1, 1, 1, 1], "baseColorTexture" : {"index" : 2, "texCoord" : 0}, "metallicFactor" : 0, "roughnessFactor" : 0, "metallicRoughnessTexture" : {"index" : 3, "texCoord" : 0}}, "normalTexture" : {"index" : 0, "texCoord" : 0, "scale" : 1}, "occlusionTexture" : {"index" : 1, "texCoord" : 0, "strength" : 0}, "emissiveFactor" : [0, 0, 0], "alphaMode" : "OPAQUE", "doubleSided" : false}], "meshes" : [{"primitives" : [{"attributes" : {"POSITION" : 1, "NORMAL" : 2, "TEXCOORD_0" : 3}, "indices" : 0, "material" : 0, "mode" : 4}]}, {"primitives" : [{"attributes" : {"POSITION" : 5, "NORMAL" : 6, "TEXCOORD_0" : 7}, "indices" : 4, "material" : 1, "mode" : 4}]}, {"primitives" : [{"attributes" : {"POSITION" : 9, "NORMAL" : 10, "TEXCOORD_0" : 11}, "indices" : 8, "material" : 2, "mode" : 4}]}, {"primitives" : [{"attributes" : {"POSITION" : 13, "NORMAL" : 14, "TEXCOORD_0" : 15}, "indices" : 12, "material" : 3, "mode" : 4}]}, {"primitives" : [{"attributes" : {"POSITION" : 17, "NORMAL" : 18, "TEXCOORD_0" : 19}, "indices" : 16, "material" : 4, "mode" : 4}]}, {"primitives" : [{"attributes" : {"POSITION" : 21, "NORMAL" : 22, "TEXCOORD_0" : 23}, "indices" : 20, "material" : 5, "mode" : 4}]}, {"primitives" : [{"attributes" : {"POSITION" : 25, "NORMAL" : 26, "TEXCOORD_0" : 27}, "indices" : 24, "material" : 6, "mode" : 4}]}], "nodes" : [{"mesh" : 0, "name" : "brick_base_low_StingrayPBS3_0"}, {"children" : [0], "name" : "brick_base_low"}, {"mesh" : 1, "name" : "ring_1_low_StingrayPBS3_0"}, {"children" : [2], "name" : "ring_1_low"}, {"mesh" : 2, "name" : "ring_2_low_StingrayPBS3_0"}, {"children" : [4], "name" : "ring_2_low"}, {"mesh" : 3, "name" : "ring_3_low_StingrayPBS3_0"}, {"children" : [6], "name" : "ring_3_low"}, {"mesh" : 4, "name" : "ring_4_low_StingrayPBS3_0"}, {"children" : [8], "matrix" : [1, 0, 0, 0, 0, 1, 0, 0, 0, 0, 1, 0, 1.9073486328125E-05, -9.5367431640625E-06, 7.62939453125E-06, 1], "name" : "ring_4_low"}, {"mesh" : 5, "name" : "inner_spere_low_StingrayPBS3_0"}, {"children" : [10], "matrix" : [1, 0, 0, 0, 0, 1, 0, 0, 0, 0, 1, 0, -5.7220458984375E-06, 0, -7.62939453125E-06, 1], "name" : "inner_spere_low"}, {"mesh" : 6, "name" : "disk_low_StingrayPBS3_0"}, {"children" : [12], "matrix" : [79.30975341796875, 0, 0, 0, 0, 79.30975341796875, 0, 0, 0, 0, 79.30975341796875, 0, 0, -88.88186645507812, 0, 1], "name" : "disk_low"}, {"children" : [1, 3, 5, 7, 9, 11, 13], "name" : "statue_low"}, {"children" : [14], "name" : "RootNode"}, {"children" : [15], "name" : "node3"}, {"children" : [16], "matrix" : [1, 0, 0, 0, 0, 0, 1, 0, 0, -1, 0, 0, 0, 0, 0, 1], "name" : "_ea646bcef6b4de7b03b66ec92c7e35a_fbx"}, {"children" : [17], "name" : "RootNode__model_correction_matrix_"}, {"children" : [18], "matrix" : [1, 0, 0, 0, 0, 3.422854177870249E-08, -0.9999999657714582, 0, 0, 0.9999999657714582, 3.422854177870249E-08, 0, 0, 0, 0, 1], "name" : "RootNode__gltf_orientation_matrix_"}, {"children" : [19], "matrix" : [1.6717959642410278, 0, 0, 0, 0, 1.6717959642410278, 0, 0, 0, 0, 1.6717959642410278, 0, 0, 0, 0, 1], "name" : "Meshes"}, {"children" : [20], "name" : "scene"}], "samplers" : [{"magFilter" : 9729, "minFilter" : 9729, "wrapS" : 10497, "wrapT" : 10497}, {"magFilter" : 9729, "minFilter" : 9729, "wrapS" : 10497, "wrapT" : 10497}, {"magFilter" : 9729, "minFilter" : 9729, "wrapS" : 10497, "wrapT" : 10497}, {"magFilter" : 9729, "minFilter" : 9729, "wrapS" : 10497, "wrapT" : 10497}], "scene" : 0, "scenes" : [{"nodes" : [21]}], "textures" : [{"sampler" : 0, "source" : 0}, {"sampler" : 1, "source" : 1}, {"sampler" : 2, "source" : 2}, {"sampler" : 3, "source" : 3}]}