<?xml version="1.0" encoding="utf-8"?>
<!-- Generator: Adobe Illustrator 24.0.0, SVG Export Plug-In . SVG Version: 6.00 Build 0)  -->
<svg version="1.1" id="Layer_1" xmlns="http://www.w3.org/2000/svg" xmlns:xlink="http://www.w3.org/1999/xlink" x="0px" y="0px"
	 viewBox="0 0 69.8 78.6" style="enable-background:new 0 0 69.8 78.6;" xml:space="preserve">
<style type="text/css">
	.st0{display:none;fill:#1E1E1E;}
	.st1{fill:#FBB72C;}
	.st2{fill:#FFFFFF;}
	.st3{fill:url(#SVGID_1_);}
	.st4{fill:#EAF6F8;}
	.st5{fill:#FDFEFF;}
	.st6{opacity:0.2;fill:#FFFFFF;enable-background:new    ;}
</style>
<g>
	<g>
		<g>
			<g>
				<path class="st0" d="M58.3,38.4c0,8.7,0,17.4,0,26.2c0,2.6-0.3,3-2.9,3c-15.7,0-31.5,0-47.2,0c-2.6,0-2.9-0.3-2.9-3
					c0-17.4,0-34.9,0-52.3c0-2.6,0.3-2.9,2.9-2.9c15.7,0,31.5,0,47.2,0c2.6,0,2.9,0.3,2.9,3C58.3,20.9,58.3,29.7,58.3,38.4z"/>
				<g>
					<path class="st1" d="M0,38.3c0-9.9,0-19.9,0-29.8C0,2.7,2.7,0,8.5,0C24,0,39.5,0,55.1,0c5.7,0,8.4,2.7,8.4,8.5
						c0,19.9,0,39.7,0,59.6c0,5.9-2.6,8.5-8.6,8.5c-15.5,0-31.1,0-46.6,0C2.7,76.7,0,74,0,68.3C0,58.3,0,48.3,0,38.3z M58.3,38.4
						c0-8.7,0-17.4,0-26.2c0-2.6-0.3-3-2.9-3c-15.7,0-31.5,0-47.2,0c-2.6,0-2.9,0.3-2.9,2.9c0,17.4,0,34.9,0,52.3c0,2.6,0.3,3,2.9,3
						c15.7,0,31.5,0,47.2,0c2.6,0,2.9-0.3,2.9-3C58.3,55.8,58.3,47.1,58.3,38.4z M32.5,74.2c0.5-0.6,1.5-1.5,1.7-2.5
						c0.2-1.5-0.9-2.5-2.5-2.5c-1.5,0-2.4,0.9-2.4,2.4C29.2,73.2,30.2,74.1,32.5,74.2z M31.6,5.5c1.1,0,2.1,0.1,3.2-0.1
						c0.5-0.1,0.8-0.7,1.3-1c-0.4-0.3-0.8-0.9-1.2-0.9c-2.1-0.1-4.2-0.1-6.3,0c-0.4,0-0.8,0.6-1.1,0.9c0.4,0.4,0.8,0.9,1.3,1
						C29.6,5.6,30.6,5.5,31.6,5.5z"/>
					<path class="st1" d="M32.5,74.2c-2.3-0.2-3.3-1-3.3-2.6c0-1.5,1-2.4,2.4-2.4c1.6,0,2.7,1,2.5,2.5C34,72.7,32.9,73.6,32.5,74.2z
						"/>
				</g>
				<path class="st2" d="M31.6,5.5c-1,0-2,0.1-2.9-0.1c-0.5-0.1-0.8-0.7-1.3-1c0.4-0.3,0.8-0.9,1.1-0.9c2.1-0.1,4.2-0.1,6.3,0
					c0.4,0,0.8,0.6,1.2,0.9c-0.4,0.4-0.8,0.9-1.3,1C33.7,5.6,32.7,5.5,31.6,5.5z"/>
			</g>
			<g>
				
					<linearGradient id="SVGID_1_" gradientUnits="userSpaceOnUse" x1="21.3287" y1="29.1016" x2="41.7798" y2="57.1998" gradientTransform="matrix(1 0 0 -1 0 79.996)">
					<stop  offset="0" style="stop-color:#18A2A8"/>
					<stop  offset="0.3895" style="stop-color:#2FACB7"/>
					<stop  offset="1" style="stop-color:#4BC5D8"/>
				</linearGradient>
				<path class="st3" d="M20,59.2c1.7-0.7,3.3-0.7,4.8-0.8c1.9-0.1,3.8-0.2,5.6-0.2c0.4,0,0.7,0,0.7-0.5c0-0.5-0.1-0.7-0.6-0.8
					c-7.7-1.4-11.7-6.7-14.3-13.5c-2.2-5.6-2.3-11.5-2-17.4c0.1-1.9,0.2-3.9,1-5.6c0.6-1.3,1.8-1.9,2.8-1.4c0.8,0.5,1.7,1,2.2,1.9
					c0.3,0.6,0.6,1.2,0.8,1.8c0.5,1.4,1.6,2.1,3.1,2.2c2.4,0.2,4.6-0.5,6.8-1.3c1.6-0.6,3.2-1.3,4.7-2.2c0.4-0.3,0.9-0.5,1.4-0.6
					c1.9-0.5,3.3,0.6,3.4,2.5c0,1.7-0.8,3.2-1.6,4.6c-1.6,2.6-3,5.4-3.6,8.4c-0.1,0.7-0.2,1.4-0.1,2.1c0.1,1.9,1.2,2.7,3,2.3
					c2-0.5,3.8-1.2,5.8-1.5c3.8-0.7,6.5,3.1,5.9,6.4c-0.6,3.2-2.5,5.5-4.9,7.5c-3.2,2.5-6.8,3.8-10.8,4c-0.2,0-0.3,0-0.5,0
					c-0.5,0-0.7,0.1-0.7,0.7c0,0.5,0.4,0.5,0.7,0.5c2.6,0,5.2,0.2,7.7,0.4c0.9,0.1,1.7,0.2,2.6,0.6C41.8,60.8,22.9,60.9,20,59.2z
					 M40,47.9c-1.3-1.5-2.8-3.2-4.3-4.7c-1.4-1.4-3-2.6-4.9-3.3c-2.7-1-5.3-0.9-7.9,0.4c-1.2,0.6-1.4,0.4-1.6-0.8
					c-0.2-1.2-0.2-2.3-0.2-3.5c0-3.1,0.1-6.2-0.5-9.2c-0.1-0.7,0-1.5-0.5-2.1C20,24.8,20,24.9,20,24.9c0.5,4.1,0.4,8.3,0.4,12.4
					c0,0.7,0,1.4,0.1,2.1c0.3,2.1,0.9,2.4,2.7,1.6c3.8-1.8,7.3-1,10.5,1.4c2,1.5,3.7,3.1,5.5,4.8C39.5,47.4,39.8,47.9,40,47.9z"/>
				<path class="st4" d="M40,47.9c-0.2,0-0.5-0.4-0.8-0.8c-1.8-1.7-3.5-3.3-5.5-4.8c-3.2-2.4-6.7-3.1-10.5-1.4
					c-1.9,0.9-2.4,0.5-2.7-1.6c-0.1-0.7-0.1-1.4-0.1-2.1c0-4.1,0.1-8.3-0.4-12.4c0,0,0.1,0,0.2-0.1c0.5,0.6,0.3,1.4,0.5,2.1
					c0.5,3,0.5,6.1,0.5,9.2c0,1.2,0,2.3,0.2,3.5c0.2,1.2,0.4,1.4,1.6,0.8c2.6-1.3,5.3-1.4,7.9-0.4c1.9,0.7,3.5,1.9,4.9,3.3
					C37.3,44.7,38.7,46.4,40,47.9z"/>
			</g>
			<g>
				<path class="st5" d="M69.3,68.5c0,1.1,0,2.2,0.3,3.3c0.5,1.6-0.6,3.1-2.4,3.7c-2.3,0.8-4.7,1.5-7.1,2.3c-0.7,0.2-1.3,0.4-2,0.6
					c-1.2,0.4-2.2,0.1-3-0.7c-0.5-0.5-0.9-1-1.3-1.5c-0.8-0.8-1.8-1.3-2.9-1.6c-2.4-0.6-4.3-2-6.1-3.6c-1.9-1.7-3.8-3.4-5.4-5.4
					c-0.2-0.2-0.3-0.3-0.4-0.5c-0.3-0.5-1-1-0.5-1.6c0.5-0.7,1.3-0.3,1.8-0.1c1.8,0.8,3.5,1.9,5.4,2.6c0.4,0.2,0.8,0.3,1.2,0.5
					c0.9,0.4,1.7,0.4,2.5-0.4c0.7-0.8,0.5-1.6,0.2-2.4c-0.6-1.7-1.9-3-3-4.3c-3.5-4.5-7.1-8.9-10.7-13.4c-0.1-0.2-0.2-0.3-0.3-0.5
					c-0.6-0.9-0.5-1.8,0.3-2.4c0.7-0.6,1.7-0.6,2.4,0.1c2,2,3.9,4.1,5.9,6.2c1.5,1.5,2.9,3.1,4.4,4.7c0.2,0.2,0.4,0.5,0.7,0.3
					c1.7-0.7,3.4-0.6,5.2-0.9c2.5-0.4,5-0.8,7.5-1.1c2.6-0.3,4.2,1,5.3,3.2c1,2,1.4,4.1,1.7,6.2C69,64,69.4,66.3,69.3,68.5z"/>
			</g>
			<path class="st6" d="M2,2.2l61.5,74.5L63.4,7.1c0,0,0.6-7.7-9.4-7l-46.2,0C7.7,0.1,3.2,0.4,2,2.2z"/>
		</g>
		<circle class="st2" cx="31.7" cy="72.2" r="2.4"/>
		<path class="st2" d="M35.3,5.5h-7.1c-0.5,0-1-0.4-1-1l0,0c0-0.5,0.5-1,1-1h7.1c0.5,0,1,0.5,1,1l0,0C36.3,5,35.9,5.5,35.3,5.5z"/>
	</g>
</g>
</svg>
