<?xml version="1.0" encoding="utf-8"?>
<!-- Generator: Adobe Illustrator 24.0.0, SVG Export Plug-In . SVG Version: 6.00 Build 0)  -->
<svg version="1.1" id="Layer_1" xmlns="http://www.w3.org/2000/svg" xmlns:xlink="http://www.w3.org/1999/xlink" x="0px" y="0px"
	 viewBox="0 0 347.64 78.58" style="enable-background:new 0 0 347.64 78.58;" xml:space="preserve">
<style type="text/css">
	.st0{display:none;fill:#1E1E1E;}
	.st1{fill:#FBB72C;}
	.st2{fill:#FFFFFF;}
	.st3{fill:url(#SVGID_1_);}
	.st4{fill:#EAF6F8;}
	.st5{fill:#FDFEFF;}
	.st6{opacity:0.2;fill:#FFFFFF;}
</style>
<g>
	<g>
		<g>
			<g>
				<path class="st0" d="M58.27,38.38c0,8.72,0.01,17.44,0,26.16c0,2.62-0.32,2.97-2.93,2.97c-15.74,0.01-31.48,0.01-47.22,0
					c-2.6,0-2.91-0.34-2.91-2.98c-0.01-17.44-0.01-34.88,0-52.32c0-2.64,0.3-2.95,2.93-2.95c15.74-0.01,31.48-0.01,47.22,0
					c2.62,0,2.92,0.32,2.92,2.96C58.27,20.94,58.27,29.66,58.27,38.38z"/>
				<g>
					<path class="st1" d="M0,38.3c0-9.93-0.01-19.86,0-29.79C0.01,2.7,2.67,0.04,8.45,0.04c15.53,0,31.07-0.01,46.6,0
						c5.74,0,8.41,2.7,8.42,8.5c0,19.86,0,39.72,0,59.59c0,5.95-2.61,8.54-8.56,8.54c-15.53,0-31.07,0-46.6,0
						c-5.64,0-8.29-2.66-8.3-8.36C-0.01,58.31,0,48.31,0,38.3z M58.27,38.38c0-8.72,0.01-17.44,0-26.16c0-2.64-0.3-2.96-2.92-2.96
						c-15.74-0.01-31.48-0.01-47.22,0c-2.63,0-2.93,0.31-2.93,2.95c-0.01,17.44-0.01,34.88,0,52.32c0,2.64,0.31,2.98,2.91,2.98
						c15.74,0.01,31.48,0.01,47.22,0c2.61,0,2.93-0.34,2.93-2.97C58.27,55.82,58.27,47.1,58.27,38.38z M32.49,74.21
						c0.45-0.64,1.51-1.5,1.67-2.51c0.24-1.54-0.92-2.53-2.48-2.52c-1.46,0.01-2.42,0.95-2.43,2.43
						C29.23,73.2,30.18,74.06,32.49,74.21z M31.62,5.52c1.05,0,2.13,0.11,3.16-0.05c0.46-0.07,0.84-0.66,1.26-1.02
						c-0.38-0.32-0.75-0.9-1.15-0.91c-2.11-0.09-4.22-0.09-6.32,0c-0.4,0.02-0.77,0.59-1.15,0.91c0.42,0.36,0.79,0.95,1.26,1.02
						C29.63,5.64,30.63,5.52,31.62,5.52z"/>
					<path class="st1" d="M32.49,74.21c-2.31-0.16-3.26-1.02-3.25-2.6c0.02-1.48,0.97-2.42,2.43-2.43c1.56-0.01,2.72,0.98,2.48,2.52
						C34,72.71,32.94,73.58,32.49,74.21z"/>
				</g>
				<path class="st2" d="M31.62,5.52c-0.98,0-1.99,0.11-2.94-0.05c-0.46-0.08-0.84-0.67-1.26-1.02c0.38-0.32,0.75-0.89,1.15-0.91
					c2.11-0.09,4.22-0.09,6.32,0c0.39,0.02,0.76,0.59,1.15,0.91c-0.42,0.36-0.8,0.95-1.26,1.02C33.74,5.63,32.67,5.52,31.62,5.52z"
					/>
			</g>
			<g>
				<linearGradient id="SVGID_1_" gradientUnits="userSpaceOnUse" x1="21.3334" y1="50.903" x2="41.7845" y2="22.8048">
					<stop  offset="0" style="stop-color:#18A2A8"/>
					<stop  offset="0.3895" style="stop-color:#2FACB7"/>
					<stop  offset="1" style="stop-color:#4BC5D8"/>
				</linearGradient>
				<path class="st3" d="M19.98,59.19c1.67-0.69,3.25-0.73,4.8-0.84c1.88-0.14,3.77-0.17,5.65-0.24c0.35-0.01,0.7,0.03,0.72-0.5
					c0.03-0.48-0.15-0.67-0.63-0.75c-7.71-1.36-11.68-6.73-14.31-13.47c-2.19-5.62-2.3-11.5-1.97-17.42
					c0.11-1.92,0.23-3.85,1.03-5.64c0.56-1.26,1.77-1.91,2.76-1.38c0.84,0.45,1.7,0.97,2.16,1.89c0.29,0.58,0.58,1.18,0.81,1.79
					c0.54,1.44,1.62,2.08,3.09,2.19c2.36,0.18,4.58-0.47,6.75-1.26c1.63-0.59,3.21-1.29,4.69-2.2c0.42-0.26,0.89-0.47,1.36-0.61
					c1.86-0.53,3.32,0.57,3.37,2.5c0.04,1.74-0.75,3.2-1.63,4.61c-1.63,2.63-3.01,5.37-3.6,8.44c-0.13,0.69-0.16,1.38-0.12,2.07
					c0.11,1.89,1.2,2.69,3.03,2.26c1.95-0.45,3.81-1.18,5.79-1.55c3.8-0.73,6.52,3.11,5.88,6.36c-0.62,3.16-2.46,5.53-4.89,7.47
					c-3.16,2.53-6.81,3.83-10.85,4.04c-0.15,0.01-0.31,0.01-0.46,0.01c-0.45-0.01-0.74,0.13-0.72,0.65
					c0.01,0.53,0.38,0.48,0.73,0.49c2.58,0.03,5.15,0.16,7.72,0.43c0.87,0.09,1.73,0.21,2.59,0.59
					C41.75,60.78,22.92,60.86,19.98,59.19z M40.01,47.88c-1.33-1.47-2.75-3.18-4.32-4.74c-1.4-1.38-2.99-2.57-4.87-3.25
					c-2.69-0.98-5.34-0.89-7.94,0.4c-1.21,0.6-1.4,0.43-1.64-0.76c-0.23-1.15-0.19-2.3-0.18-3.45c0.02-3.08,0.06-6.17-0.45-9.22
					c-0.11-0.67,0.02-1.46-0.45-2.08c-0.12,0.07-0.18,0.09-0.18,0.11c0.55,4.12,0.44,8.27,0.4,12.41c-0.01,0.69,0.01,1.39,0.11,2.07
					c0.32,2.08,0.86,2.44,2.74,1.58c3.81-1.75,7.25-1.05,10.49,1.38c1.95,1.46,3.7,3.13,5.47,4.79
					C39.53,47.44,39.82,47.87,40.01,47.88z"/>
				<path class="st4" d="M40.01,47.88c-0.18-0.01-0.48-0.44-0.82-0.76c-1.77-1.65-3.53-3.33-5.47-4.79
					c-3.24-2.43-6.68-3.13-10.49-1.38c-1.88,0.86-2.43,0.51-2.74-1.58c-0.1-0.68-0.12-1.38-0.11-2.07c0.04-4.14,0.15-8.28-0.4-12.41
					c0-0.01,0.06-0.03,0.18-0.11c0.47,0.62,0.34,1.4,0.45,2.08c0.52,3.05,0.47,6.13,0.45,9.22c-0.01,1.15-0.05,2.31,0.18,3.45
					c0.24,1.2,0.43,1.36,1.64,0.76c2.61-1.29,5.25-1.38,7.94-0.4c1.88,0.68,3.47,1.87,4.87,3.25C37.26,44.7,38.67,46.41,40.01,47.88
					z"/>
			</g>
			<g>
				<path class="st5" d="M69.33,68.52c0.04,1.09-0.02,2.16,0.31,3.25c0.47,1.55-0.57,3.09-2.39,3.71c-2.35,0.8-4.73,1.53-7.1,2.29
					c-0.66,0.21-1.33,0.4-1.99,0.63c-1.16,0.4-2.16,0.12-3.01-0.73c-0.47-0.47-0.86-1.02-1.34-1.46c-0.83-0.77-1.78-1.31-2.92-1.59
					c-2.37-0.6-4.33-1.99-6.13-3.58c-1.91-1.7-3.79-3.44-5.44-5.4c-0.15-0.18-0.33-0.34-0.44-0.54c-0.28-0.5-0.96-0.99-0.54-1.58
					c0.47-0.65,1.27-0.34,1.84-0.07c1.8,0.85,3.5,1.89,5.36,2.63c0.4,0.16,0.81,0.31,1.2,0.48c0.91,0.4,1.74,0.37,2.45-0.42
					c0.67-0.75,0.53-1.62,0.24-2.44c-0.61-1.7-1.89-2.95-2.98-4.32c-3.55-4.47-7.14-8.91-10.71-13.36
					c-0.12-0.16-0.24-0.32-0.34-0.49c-0.56-0.88-0.45-1.76,0.29-2.41c0.74-0.64,1.68-0.64,2.41,0.11c1.99,2.05,3.94,4.14,5.9,6.22
					c1.46,1.55,2.9,3.1,4.36,4.65c0.18,0.19,0.37,0.45,0.67,0.32c1.65-0.73,3.44-0.61,5.17-0.88c2.48-0.39,4.96-0.85,7.46-1.13
					c2.64-0.29,4.21,1.03,5.28,3.2c0.96,1.96,1.37,4.08,1.74,6.2C69.04,64.02,69.38,66.26,69.33,68.52z"/>
			</g>
			<path class="st6" d="M2,2.17l61.47,74.51L63.4,7.06c0,0,0.62-7.66-9.44-7.02L7.73,0.06C7.73,0.06,3.16,0.44,2,2.17z"/>
		</g>
		<circle class="st2" cx="31.74" cy="72.17" r="2.43"/>
		<path class="st2" d="M35.3,5.48h-7.13c-0.55,0-1-0.45-1-1v0c0-0.55,0.45-1,1-1h7.13c0.55,0,1,0.45,1,1v0
			C36.3,5.03,35.85,5.48,35.3,5.48z"/>
	</g>
	<g>
		<path class="st2" d="M134.78,13.02c-0.58,2.96-1.78,5.12-3.61,6.45c-1.83,1.34-4.06,2.16-6.67,2.47
			c-2.62,0.31-5.47,0.27-8.55-0.12c-3.09-0.39-6.14-0.87-9.14-1.45c0.66,0.33,1.17,0.72,1.54,1.17c0.37,0.45,0.66,0.89,0.86,1.3
			c0.08,0.21,0.16,0.43,0.25,0.68c0.08,0.25,0.16,0.52,0.25,0.8l-9.08,13.22c1.81,0.08,3.59,0.19,5.34,0.31
			c1.75,0.12,3.37,0.22,4.85,0.28c1.48,0.06,2.78,0.04,3.89-0.06c1.11-0.1,1.91-0.34,2.41-0.71c-1.65,2.43-3.26,4.13-4.85,5.09
			c-1.59,0.97-3.16,1.46-4.72,1.48c-1.57,0.02-3.13-0.27-4.69-0.86c-1.57-0.6-3.13-1.24-4.69-1.95c-1.85,2.8-3.66,5.56-5.43,8.28
			c-1.77,2.72-3.28,5.16-4.54,7.32c-1.26,2.16-2.17,3.9-2.75,5.22c-0.58,1.32-0.58,1.98,0,1.98c-1.15,0-1.92-0.33-2.32-0.99
			c-0.39-0.66-0.49-1.57-0.31-2.75c0.19-1.17,0.62-2.55,1.3-4.14c0.68-1.58,1.5-3.29,2.47-5.13c0.97-1.83,2.05-3.74,3.24-5.71
			c1.19-1.98,2.41-3.95,3.64-5.93c-1.32-0.41-2.66-0.61-4.01-0.59c-1.36,0.02-2.72,0.4-4.08,1.14c0.99-0.82,2.26-1.4,3.83-1.73
			c1.56-0.33,3.33-0.53,5.31-0.62c1.32-2.1,2.56-4.13,3.74-6.08c1.17-1.96,2.17-3.73,3-5.31c0.82-1.58,1.42-2.93,1.79-4.05
			c0.37-1.11,0.39-1.89,0.06-2.35c-2.02-0.33-3.92-0.58-5.71-0.74c-1.79-0.16-3.4-0.14-4.82,0.06c-1.42,0.21-2.59,0.64-3.52,1.3
			c-0.93,0.66-1.53,1.65-1.82,2.96c0.25-1.93,1.06-3.45,2.44-4.54c1.38-1.09,3.13-1.9,5.25-2.44c2.12-0.53,4.51-0.85,7.16-0.96
			c2.66-0.1,5.38-0.11,8.18-0.03c2.8,0.08,5.57,0.2,8.31,0.34c2.74,0.14,5.23,0.19,7.47,0.12c2.24-0.06,4.15-0.29,5.71-0.68
			C133.32,14.69,134.33,14,134.78,13.02z"/>
		<path class="st2" d="M130.95,32.66c1.81,0.12,3.23,0.37,4.26,0.74c1.03,0.37,1.74,0.84,2.13,1.42c0.39,0.58,0.49,1.25,0.31,2.01
			c-0.19,0.76-0.59,1.57-1.2,2.44c-1.15,1.73-2.23,3.36-3.24,4.88c-1.01,1.52-1.95,2.99-2.81,4.38c-0.99,1.61-1.94,3.19-2.84,4.76
			c-0.91,1.57-1.64,2.94-2.19,4.14c-0.56,1.19-0.9,2.16-1.02,2.9c-0.12,0.74,0.06,1.11,0.56,1.11c0.74,0,1.66-0.47,2.75-1.42
			c1.09-0.95,2.22-2.11,3.4-3.49c1.17-1.38,2.29-2.83,3.37-4.35c1.07-1.52,1.93-2.88,2.59-4.08l1.79,1.11
			c-0.99,1.32-2.09,2.82-3.3,4.51c-1.21,1.69-2.52,3.28-3.92,4.79c-1.4,1.5-2.87,2.79-4.42,3.86c-1.54,1.07-3.12,1.61-4.72,1.61
			c-1.4,0-2.24-0.47-2.53-1.42c-0.29-0.95-0.23-2.16,0.19-3.64c-2.14,2.07-4.12,3.48-5.93,4.24c-1.81,0.76-3.24,0.9-4.29,0.44
			c-1.05-0.46-1.62-1.52-1.7-3.18c-0.08-1.66,0.56-3.87,1.91-6.63c0.66-1.36,1.4-2.77,2.22-4.23c0.82-1.46,1.64-2.9,2.44-4.32
			c0.8-1.42,1.55-2.8,2.25-4.14c0.7-1.34,1.29-2.56,1.76-3.67c0.47-1.11,0.76-2.08,0.86-2.9c0.1-0.82-0.03-1.44-0.4-1.85
			c2.06-0.08,3.5,0.23,4.32,0.93c0.82,0.7,1.22,1.65,1.2,2.84c-0.02,1.19-0.38,2.58-1.08,4.17c-0.7,1.59-1.55,3.24-2.56,4.97
			c-1.01,1.73-2.09,3.45-3.24,5.16c-1.15,1.71-2.2,3.28-3.15,4.72c-1.03,1.61-1.74,2.87-2.13,3.8c-0.39,0.93-0.52,1.59-0.4,1.98
			c0.12,0.39,0.43,0.54,0.93,0.43c0.49-0.11,1.09-0.37,1.79-0.81c0.7-0.43,1.45-1.01,2.25-1.73c0.8-0.72,1.55-1.51,2.25-2.38
			c0.86-1.03,1.7-2.15,2.5-3.37c0.8-1.21,1.54-2.4,2.22-3.55c0.68-1.15,1.3-2.23,1.85-3.24c0.56-1.01,1-1.84,1.33-2.5
			c1.65-3.17,2.85-5.66,3.61-7.47C131.68,34.8,131.69,33.48,130.95,32.66z"/>
		<path class="st2" d="M136.14,59.64c-0.58,1.28-0.95,2.3-1.11,3.06c-0.16,0.76-0.04,1.18,0.37,1.27c-1.48-0.04-2.45-0.47-2.9-1.3
			c-0.45-0.82-0.56-1.91-0.31-3.27c0.25-1.36,0.77-2.92,1.58-4.69c0.8-1.77,1.7-3.58,2.69-5.43c0.99-1.85,2-3.71,3.03-5.56
			c1.03-1.85,1.91-3.55,2.66-5.1c0.74-1.54,1.24-2.87,1.48-3.98c0.25-1.11,0.1-1.87-0.43-2.29c1.4-0.08,2.66-0.04,3.77,0.12
			c1.11,0.17,1.95,0.52,2.53,1.08c0.58,0.56,0.81,1.31,0.71,2.25c-0.1,0.95-0.67,2.14-1.7,3.58c-1.4,2.1-2.83,4.28-4.29,6.55
			c-1.46,2.26-2.85,4.47-4.17,6.61c1.32-1.56,2.65-2.98,3.98-4.26c1.34-1.28,2.6-2.39,3.8-3.33c0.7-1.77,1.65-3.59,2.84-5.47
			c1.19-1.87,2.63-3.59,4.32-5.16c1.4-1.36,2.76-2.29,4.08-2.78c1.32-0.49,2.32-0.59,3-0.28c0.68,0.31,0.9,1.02,0.65,2.13
			c-0.25,1.11-1.21,2.59-2.9,4.45c-1.36,1.48-2.92,2.93-4.69,4.35c-1.77,1.42-3.48,2.56-5.13,3.43c-0.37,0.49-0.63,1.13-0.77,1.91
			c-0.14,0.78-0.14,1.53,0,2.25c0.14,0.72,0.46,1.34,0.96,1.85c0.49,0.52,1.17,0.77,2.04,0.77c1.07,0,2.12-0.44,3.15-1.33
			c1.03-0.88,1.93-1.86,2.72-2.93l2.28,0.68c-0.62,0.62-1.27,1.23-1.95,1.82c-0.68,0.6-1.37,1.14-2.07,1.64
			c-0.7,0.49-1.44,0.89-2.22,1.17c-0.78,0.29-1.61,0.43-2.47,0.43c-0.66,0-1.31-0.15-1.95-0.46c-0.64-0.31-1.18-0.72-1.64-1.24
			c-0.45-0.51-0.78-1.14-0.99-1.88c-0.21-0.74-0.23-1.54-0.06-2.41c-0.95,0.74-1.94,1.55-2.96,2.44c-1.03,0.89-2.03,1.84-3,2.87
			c-0.97,1.03-1.87,2.08-2.72,3.15C137.49,57.44,136.76,58.53,136.14,59.64z"/>
		<path class="st2" d="M164.24,32.35c1.98-0.21,3.43-0.05,4.35,0.46c0.93,0.52,1.44,1.28,1.54,2.28c0.1,1.01-0.12,2.19-0.68,3.55
			s-1.31,2.76-2.25,4.2c1.11-1.44,2.25-2.81,3.43-4.11c1.17-1.3,2.33-2.42,3.46-3.37c1.13-0.95,2.22-1.7,3.27-2.25
			c1.05-0.56,2.01-0.81,2.87-0.77c1.03,0.08,1.79,0.37,2.28,0.86c0.49,0.49,0.75,1.13,0.77,1.91c0.02,0.78-0.18,1.65-0.59,2.59
			c-0.41,0.95-0.99,1.89-1.73,2.84c-0.95,1.24-1.95,2.62-3,4.17c-1.05,1.54-2.07,3.11-3.06,4.69c-0.99,1.59-1.89,3.13-2.72,4.63
			c-0.82,1.5-1.48,2.84-1.98,4.01c-0.49,1.17-0.77,2.12-0.83,2.84c-0.06,0.72,0.17,1.08,0.71,1.08c0.62,0,1.49-0.49,2.62-1.48
			c1.13-0.99,2.34-2.2,3.61-3.64c1.28-1.44,2.49-2.95,3.64-4.54c1.15-1.58,2.08-2.97,2.78-4.17l1.79,1.24
			c-0.99,1.36-2.11,2.88-3.37,4.57c-1.26,1.69-2.57,3.27-3.95,4.76c-1.38,1.48-2.79,2.73-4.23,3.74c-1.44,1.01-2.84,1.51-4.2,1.51
			c-1.69,0-2.85-0.47-3.49-1.42c-0.64-0.95-0.9-2.14-0.77-3.58c0.12-1.44,0.55-3,1.27-4.69c0.72-1.69,1.55-3.29,2.5-4.82
			c0.74-1.19,1.55-2.46,2.44-3.8c0.88-1.34,1.8-2.73,2.75-4.17c1.98-2.96,2.81-4.67,2.5-5.13c-0.31-0.45-1.64,0.54-3.98,2.96
			c-0.99,0.99-2.01,2.08-3.06,3.27c-1.05,1.19-2.1,2.46-3.15,3.8c-1.05,1.34-2.09,2.71-3.12,4.11c-1.03,1.4-1.98,2.78-2.84,4.14
			c-0.74,1.32-1.39,2.52-1.95,3.61c-0.56,1.09-1,2.06-1.33,2.9c-0.33,0.84-0.51,1.51-0.56,2.01c-0.04,0.49,0.1,0.76,0.43,0.8
			c-1.48-0.04-2.45-0.47-2.9-1.3c-0.45-0.82-0.56-1.91-0.31-3.27c0.25-1.36,0.76-2.92,1.54-4.69c0.78-1.77,1.68-3.58,2.69-5.43
			c1.01-1.85,2.03-3.71,3.06-5.56c1.03-1.85,1.9-3.55,2.62-5.1c0.72-1.54,1.21-2.87,1.48-3.98
			C164.91,33.52,164.77,32.76,164.24,32.35z"/>
		<path class="st2" d="M188.63,32.66c1.48-0.08,2.75,0,3.8,0.25s1.82,0.66,2.32,1.24c0.49,0.58,0.68,1.33,0.56,2.25
			c-0.12,0.93-0.6,2.01-1.42,3.24c-1.11,1.61-2.15,3.15-3.12,4.63c-0.97,1.48-1.86,2.9-2.69,4.26c-0.99,1.61-1.94,3.19-2.84,4.76
			c-0.91,1.57-1.64,2.94-2.19,4.14c-0.56,1.19-0.9,2.16-1.02,2.9c-0.12,0.74,0.06,1.11,0.56,1.11c0.66,0,1.59-0.48,2.81-1.45
			c1.21-0.97,2.48-2.15,3.8-3.55c1.32-1.4,2.6-2.86,3.86-4.38c1.26-1.52,2.25-2.84,3-3.95l1.54,1.67c-1.03,1.24-2.24,2.68-3.64,4.32
			c-1.4,1.65-2.87,3.19-4.42,4.63c-1.54,1.44-3.13,2.68-4.76,3.71c-1.63,1.03-3.18,1.54-4.66,1.54c-1.4,0-2.26-0.44-2.59-1.33
			c-0.33-0.88-0.33-2.03,0-3.43c0.33-1.4,0.93-3.02,1.79-4.85c0.86-1.83,1.82-3.71,2.87-5.62c1.05-1.91,2.1-3.8,3.15-5.65
			c1.05-1.85,1.92-3.52,2.62-5c0.7-1.48,1.15-2.72,1.36-3.71C189.52,33.4,189.29,32.82,188.63,32.66z M197.71,29.07
			c-1.4,0.49-2.42,0.47-3.06-0.06c-0.64-0.53-0.92-1.29-0.83-2.25c0.08-0.97,0.53-2,1.33-3.09c0.8-1.09,1.95-1.95,3.43-2.56
			c1.52-0.62,2.67-0.67,3.43-0.15c0.76,0.52,1.12,1.27,1.08,2.25c-0.04,0.99-0.5,2.05-1.39,3.18
			C200.81,27.52,199.48,28.42,197.71,29.07z"/>
		<path class="st2" d="M198.26,63.97c-1.52,0-2.7-0.45-3.52-1.36c-0.82-0.91-1.36-2.05-1.61-3.43c-0.25-1.38-0.23-2.86,0.06-4.45
			c0.29-1.58,0.77-3.08,1.45-4.48c0.68-1.4,1.5-2.58,2.47-3.55c0.97-0.97,2.03-1.49,3.18-1.57c1.03-0.99,2.1-2.1,3.21-3.33
			c1.11-1.24,2.12-2.39,3.03-3.46c0.49-1.4,1.24-2.57,2.22-3.52c0.91-0.82,2-1.47,3.27-1.95c1.28-0.47,2.63-0.69,4.08-0.65
			c-0.95,0.7-1.69,1.64-2.22,2.81c-0.54,1.17-0.98,2.51-1.33,4.01c-0.35,1.5-0.65,3.12-0.9,4.85c-0.25,1.73-0.55,3.47-0.9,5.22
			c-0.35,1.75-0.83,3.48-1.45,5.19c-0.62,1.71-1.44,3.28-2.47,4.72c0.82-0.66,1.77-1.46,2.84-2.41c1.07-0.95,2.12-1.91,3.15-2.9
			c1.03-0.99,1.98-1.97,2.84-2.93c0.86-0.97,1.52-1.84,1.98-2.62l2.04,0.99c-1.19,1.52-2.58,3.07-4.17,4.63
			c-1.59,1.57-3.23,3.02-4.94,4.35c-1.71,1.34-3.42,2.5-5.13,3.49c-1.71,0.99-3.28,1.67-4.72,2.04
			C199.83,63.86,199.01,63.97,198.26,63.97z M198.51,62.55c1.73-0.25,3.01-1.09,3.83-2.53c0.82-1.44,1.41-3.19,1.76-5.25
			c0.35-2.06,0.6-4.26,0.74-6.61c0.14-2.35,0.42-4.57,0.83-6.67l-3.27,4.01c0.29,0.12,0.57,0.29,0.83,0.49
			c0.27,0.21,0.57,0.43,0.9,0.68c-0.54,0-1.16,0.41-1.88,1.24c-0.72,0.82-1.43,1.84-2.13,3.06c-0.7,1.21-1.33,2.52-1.88,3.92
			c-0.56,1.4-0.95,2.69-1.17,3.86c-0.23,1.17-0.25,2.13-0.06,2.87C197.18,62.36,197.69,62.67,198.51,62.55z"/>
		<path class="st2" d="M238.41,8.01c1.85,0.21,3.26,0.55,4.23,1.02c0.97,0.47,1.58,1.05,1.85,1.73c0.27,0.68,0.27,1.45,0,2.32
			c-0.27,0.86-0.71,1.79-1.33,2.78c-1.24,1.85-2.62,3.97-4.17,6.36c-1.54,2.39-3.15,4.89-4.82,7.5c-1.67,2.62-3.36,5.29-5.06,8.03
			c-1.71,2.74-3.35,5.38-4.91,7.94c1.24-1.73,2.52-3.4,3.86-5c1.34-1.61,2.68-3.04,4.01-4.29c1.34-1.26,2.63-2.25,3.89-3
			c1.26-0.74,2.4-1.09,3.43-1.05c1.11,0.08,1.92,0.36,2.44,0.83c0.51,0.47,0.8,1.06,0.86,1.76c0.06,0.7-0.07,1.46-0.4,2.28
			c-0.33,0.82-0.8,1.61-1.42,2.35c-0.95,1.19-1.97,2.57-3.06,4.14c-1.09,1.57-2.16,3.18-3.21,4.85c-1.05,1.67-2.03,3.3-2.93,4.91
			c-0.91,1.61-1.64,3.04-2.19,4.29c-0.56,1.26-0.89,2.28-0.99,3.06c-0.1,0.78,0.13,1.17,0.71,1.17c0.95,0,1.97-0.48,3.06-1.45
			c1.09-0.97,2.18-2.16,3.27-3.58c1.09-1.42,2.13-2.93,3.12-4.54c0.99-1.61,1.85-3.03,2.59-4.26l1.73,1.54
			c-0.91,1.24-1.93,2.68-3.06,4.32c-1.13,1.65-2.34,3.21-3.61,4.69c-1.28,1.48-2.62,2.73-4.01,3.74c-1.4,1.01-2.84,1.51-4.32,1.51
			c-1.69,0-2.85-0.41-3.49-1.24c-0.64-0.82-0.9-1.91-0.77-3.27c0.12-1.36,0.53-2.91,1.24-4.66c0.7-1.75,1.54-3.53,2.53-5.34
			c0.95-1.73,2.03-3.55,3.24-5.47c1.21-1.91,2.58-3.92,4.11-6.02c0.78-1.07,1.04-1.72,0.77-1.95c-0.27-0.23-0.92,0.09-1.95,0.96
			c-1.03,0.86-2.16,1.96-3.4,3.27c-1.24,1.32-2.5,2.77-3.8,4.35c-1.3,1.59-2.59,3.23-3.89,4.94c-1.3,1.71-2.5,3.41-3.61,5.1
			c-1.44,2.72-2.55,4.92-3.33,6.61c-0.78,1.69-0.97,2.59-0.56,2.72c-1.52-0.04-2.28-0.82-2.28-2.35c0-1.52,0.48-3.54,1.45-6.05
			c0.97-2.51,2.32-5.38,4.05-8.62c1.73-3.23,3.58-6.55,5.56-9.94c1.98-3.4,3.95-6.74,5.93-10.04c1.98-3.29,3.7-6.29,5.16-8.99
			c1.46-2.7,2.54-4.94,3.24-6.73C238.86,9.47,238.94,8.38,238.41,8.01z"/>
	</g>
	<g>
		<path class="st1" d="M269.15,11.47c1.03-0.16,1.99-0.14,2.87,0.06c0.88,0.21,1.64,0.47,2.25,0.8c0.82,0.41,1.48,0.86,1.98,1.36
			c-0.91,2.59-1.74,5.32-2.5,8.18c-0.76,2.86-1.42,5.73-1.98,8.61c-0.56,2.88-1,5.71-1.33,8.49c-0.33,2.78-0.55,5.39-0.65,7.84
			c-0.1,2.45-0.06,4.67,0.12,6.67c0.19,2,0.53,3.63,1.02,4.91c0.08-1.4,0.46-3.11,1.14-5.13c0.68-2.02,1.54-4.21,2.59-6.58
			c1.05-2.37,2.21-4.84,3.49-7.41c1.28-2.57,2.54-5.12,3.8-7.63c1.26-2.51,2.45-4.91,3.58-7.19c1.13-2.28,2.08-4.34,2.84-6.18
			c0.76-1.83,1.28-3.34,1.54-4.54c0.27-1.19,0.15-1.95-0.34-2.28c1.56,0,2.91,0.15,4.05,0.46c1.13,0.31,2.07,0.65,2.81,1.02
			c0.86,0.45,1.61,0.95,2.22,1.48c-0.78,1.28-1.83,2.93-3.15,4.97c-1.32,2.04-2.77,4.29-4.35,6.76c-1.59,2.47-3.23,5.07-4.94,7.81
			c-1.71,2.74-3.35,5.45-4.91,8.12c-1.57,2.68-3.01,5.23-4.32,7.66c-1.32,2.43-2.36,4.56-3.12,6.39c-0.76,1.83-1.19,3.29-1.3,4.39
			c-0.1,1.09,0.28,1.64,1.14,1.64c-2.26,0-4.08-0.7-5.43-2.1c-1.36-1.4-2.37-3.24-3.03-5.53c-0.66-2.28-1.01-4.9-1.05-7.84
			c-0.04-2.94,0.1-5.96,0.43-9.05c0.33-3.09,0.79-6.13,1.39-9.14c0.6-3.01,1.22-5.72,1.88-8.15c-1.11,2.02-2.35,4.5-3.71,7.44
			c-1.36,2.94-2.72,6.03-4.08,9.26c-1.36,3.23-2.65,6.45-3.86,9.67c-1.21,3.21-2.24,6.09-3.09,8.65c-0.84,2.55-1.43,4.62-1.76,6.21
			c-0.33,1.58-0.27,2.38,0.19,2.38c-2.06,0-3.52-0.46-4.38-1.39c-0.86-0.93-1.28-2.18-1.24-3.77c0.04-1.58,0.45-3.45,1.24-5.59
			c0.78-2.14,1.79-4.42,3.03-6.82c1.24-2.41,2.62-4.9,4.17-7.47c1.54-2.57,3.09-5.1,4.63-7.6c1.54-2.49,3.03-4.87,4.45-7.13
			c1.42-2.26,2.62-4.28,3.61-6.05c0.99-1.77,1.69-3.24,2.1-4.42C269.62,12.55,269.6,11.8,269.15,11.47z"/>
		<path class="st1" d="M301.14,54.27c-0.91,0-1.65-0.16-2.22-0.49c-1.11,1.19-2.25,2.31-3.43,3.34c-1.17,1.03-2.35,1.92-3.52,2.69
			c-1.17,0.76-2.33,1.36-3.46,1.79c-1.13,0.43-2.19,0.65-3.18,0.65c-1.56,0-2.63-0.55-3.21-1.64c-0.58-1.09-0.79-2.51-0.65-4.26
			c0.14-1.75,0.6-3.71,1.36-5.87c0.76-2.16,1.73-4.32,2.9-6.48c1.17-2.16,2.49-4.21,3.95-6.14c1.46-1.93,2.96-3.53,4.51-4.79
			c1.54-1.26,3.07-2.06,4.57-2.41c1.5-0.35,2.87-0.03,4.11,0.96c1.81-0.37,3.21-0.35,4.2,0.06c0.99,0.41,1.63,1.1,1.91,2.07
			c0.29,0.97,0.27,2.15-0.06,3.55c-0.33,1.4-0.89,2.91-1.67,4.54c-0.78,1.63-1.76,3.31-2.93,5.06c-1.17,1.75-2.44,3.43-3.8,5.03
			c0.21,0.54,0.68,0.78,1.42,0.74c0.82-0.04,1.67-0.26,2.53-0.65c0.86-0.39,1.68-0.88,2.44-1.48c0.76-0.6,1.43-1.26,2.01-1.98
			c0.58-0.72,1.03-1.43,1.36-2.13l1.54,1.11c-0.62,0.74-1.32,1.51-2.1,2.32c-0.78,0.8-1.63,1.53-2.53,2.19
			c-0.91,0.66-1.86,1.19-2.87,1.61C303.31,54.07,302.25,54.27,301.14,54.27z M297.31,51.18c-0.25-1.36-0.21-2.84,0.12-4.45
			c0.33-1.61,0.82-3.19,1.48-4.76c0.66-1.56,1.42-3.08,2.29-4.54c0.86-1.46,1.71-2.73,2.53-3.8c-0.74,0-1.63,0.38-2.66,1.14
			c-1.03,0.76-2.12,1.76-3.27,3c-1.15,1.24-2.32,2.66-3.49,4.26c-1.17,1.61-2.29,3.23-3.33,4.88c-1.05,1.65-1.99,3.27-2.81,4.88
			c-0.82,1.61-1.45,3.03-1.88,4.26c-0.43,1.24-0.62,2.23-0.56,3c0.06,0.76,0.44,1.14,1.14,1.14c0.86,0,1.75-0.24,2.66-0.71
			c0.91-0.47,1.8-1.11,2.69-1.91c0.88-0.8,1.76-1.76,2.62-2.87C295.7,53.59,296.53,52.42,297.31,51.18z"/>
		<path class="st1" d="M327.76,30.99c1.77,0,3.16,0.19,4.17,0.56c1.01,0.37,1.7,0.9,2.07,1.57c0.37,0.68,0.43,1.47,0.19,2.38
			c-0.25,0.91-0.74,1.87-1.48,2.9c-1.03,1.52-2,2.97-2.9,4.35c-0.91,1.38-1.77,2.71-2.59,3.98c-0.99,1.61-1.93,3.17-2.81,4.69
			c-0.89,1.52-1.62,2.88-2.19,4.08c-0.58,1.19-0.94,2.15-1.08,2.87c-0.14,0.72,0.05,1.08,0.59,1.08c0.33,0,0.88-0.26,1.67-0.77
			c0.78-0.51,1.7-1.2,2.75-2.07c1.05-0.86,2.16-1.88,3.33-3.06c1.17-1.17,2.32-2.44,3.43-3.8c-0.08-0.74-0.06-1.49,0.06-2.25
			c0.12-0.76,0.25-1.45,0.37-2.07l0.56-2.1c0.78-2.88,2.04-5.56,3.77-8.03c1.44-2.1,2.8-3.49,4.08-4.17
			c1.28-0.68,2.25-0.78,2.93-0.31c0.68,0.47,0.94,1.49,0.77,3.06c-0.17,1.57-0.95,3.56-2.35,5.99c-0.74,1.28-1.71,2.74-2.9,4.38
			c-1.19,1.65-2.39,3.15-3.58,4.51c-0.37,1.11-0.48,2.04-0.34,2.78c0.14,0.74,0.69,1.11,1.64,1.11c0.53,0,1.15-0.19,1.85-0.59
			c0.7-0.39,1.41-0.9,2.13-1.51c0.72-0.62,1.4-1.3,2.04-2.04c0.64-0.74,1.14-1.44,1.51-2.1l2.22,0.93
			c-0.66,0.74-1.39,1.52-2.19,2.35c-0.8,0.82-1.65,1.57-2.53,2.25c-0.89,0.68-1.83,1.24-2.84,1.67c-1.01,0.43-2.03,0.65-3.06,0.65
			c-0.95,0-1.71-0.19-2.29-0.56c-0.58-0.37-1.01-0.86-1.3-1.48c-1.36,1.4-2.73,2.71-4.11,3.92c-1.38,1.21-2.71,2.28-3.98,3.18
			c-1.28,0.91-2.44,1.62-3.49,2.13c-1.05,0.52-1.95,0.77-2.69,0.77c-1.4,0-2.25-0.42-2.56-1.27c-0.31-0.84-0.28-1.97,0.09-3.37
			c-2.1,1.94-4.03,3.24-5.77,3.92c-1.75,0.68-3.13,0.77-4.14,0.28c-1.01-0.49-1.54-1.55-1.61-3.18c-0.06-1.63,0.57-3.8,1.88-6.52
			c0.66-1.36,1.4-2.77,2.22-4.23c0.82-1.46,1.64-2.9,2.44-4.32c0.8-1.42,1.55-2.8,2.25-4.14c0.7-1.34,1.29-2.56,1.76-3.67
			c0.47-1.11,0.76-2.08,0.86-2.9c0.1-0.82-0.03-1.44-0.4-1.85c2.06-0.08,3.5,0.23,4.32,0.93c0.82,0.7,1.22,1.65,1.2,2.84
			c-0.02,1.19-0.38,2.58-1.08,4.17c-0.7,1.59-1.55,3.24-2.56,4.97c-1.01,1.73-2.09,3.45-3.24,5.16c-1.15,1.71-2.2,3.28-3.15,4.72
			c-1.03,1.61-1.74,2.87-2.13,3.8c-0.39,0.93-0.52,1.59-0.4,1.98c0.12,0.39,0.43,0.54,0.93,0.43c0.49-0.1,1.09-0.37,1.79-0.8
			c0.7-0.43,1.45-1.01,2.25-1.73c0.8-0.72,1.55-1.51,2.25-2.38c0.62-0.74,1.21-1.53,1.79-2.38c0.58-0.84,1.13-1.7,1.67-2.56
			c1.07-2.02,2.2-4.08,3.4-6.18c1.19-2.1,2.24-4.05,3.15-5.84c0.91-1.79,1.52-3.34,1.85-4.63
			C328.58,32.19,328.41,31.36,327.76,30.99z"/>
	</g>
</g>
</svg>
